<svg width="8" height="4" viewBox="0 0 8 4" fill="none" xmlns="http://www.w3.org/2000/svg">
<path d="M4 4.00009C3.9342 4.00047 3.86897 3.98786 3.80805 3.96298C3.74713 3.9381 3.69172 3.90143 3.645 3.85509L0.645001 0.855093C0.550849 0.760941 0.497955 0.633244 0.497955 0.500093C0.497955 0.366942 0.550849 0.239245 0.645001 0.145093C0.739153 0.0509409 0.86685 -0.00195312 1 -0.00195312C1.13315 -0.00195312 1.26085 0.0509409 1.355 0.145093L4 2.79509L6.645 0.150093C6.74065 0.0681797 6.86369 0.0253764 6.98953 0.030237C7.11537 0.0350975 7.23474 0.087264 7.32378 0.176311C7.41283 0.265359 7.465 0.384728 7.46986 0.510566C7.47472 0.636404 7.43191 0.759442 7.35 0.855093L4.35 3.85509C4.25687 3.94747 4.13117 3.99954 4 4.00009Z" fill="white"/>
</svg>
