<svg width="80" height="80" viewBox="0 0 80 80" fill="none" xmlns="http://www.w3.org/2000/svg">
<path d="M74.0086 13.793H5.99141C2.68234 13.793 0 16.4753 0 19.7844V60.2156C0 63.5245 2.68234 66.207 5.99141 66.207H74.0086C77.3175 66.207 80 63.5247 80 60.2156V19.7844C80 16.4753 77.3177 13.793 74.0086 13.793Z" fill="#F42E39"/>
<path d="M13.2819 21.9911L14.5969 25.9339L18.7532 25.9661C19.2913 25.9702 19.5144 26.657 19.0814 26.9766L15.738 29.4455L16.9916 33.4083C17.1538 33.9214 16.5697 34.3456 16.1319 34.0328L12.7507 31.6158L9.3694 34.0327C8.93159 34.3456 8.34753 33.9211 8.50971 33.4081L9.76331 29.4453L6.41987 26.9766C5.9869 26.6569 6.21003 25.9702 6.74815 25.9661L10.9044 25.9339L12.2194 21.9911C12.3897 21.4806 13.1117 21.4806 13.2819 21.9911ZM28.3744 22.9627L29.3174 24.2483L30.8391 23.7723C31.0361 23.7108 31.1982 23.9355 31.0775 24.1028L30.146 25.3967L31.0688 26.6969C31.1883 26.8652 31.0247 27.0888 30.8281 27.0258L29.3096 26.5397L28.3581 27.8192C28.235 27.9848 27.9717 27.8983 27.971 27.692L27.9639 26.0975L26.453 25.588C26.2574 25.5219 26.2583 25.245 26.4544 25.1803L27.9685 24.6809L27.9863 23.0866C27.9885 22.8808 28.2524 22.7963 28.3744 22.9627ZM22.6335 19.1298L24.2185 19.302L24.8947 17.8581C24.9824 17.6713 25.2575 17.7033 25.2996 17.9053L25.6255 19.4659L27.2077 19.6628C27.4125 19.6883 27.4671 19.9598 27.2878 20.0625L25.9042 20.8547L26.206 22.4203C26.245 22.6231 26.0036 22.7588 25.8507 22.6202L24.6696 21.5491L23.2739 22.3197C23.0933 22.4195 22.8894 22.2317 22.9741 22.0434L23.6277 20.5891L22.4633 19.4997C22.3128 19.3594 22.4283 19.1077 22.6335 19.1298ZM25.1394 34.582L24.1966 35.868L22.6749 35.392C22.4778 35.3305 22.3158 35.555 22.4364 35.7225L23.368 37.0164L22.4452 38.3166C22.3256 38.4848 22.4892 38.7084 22.6858 38.6455L24.2042 38.1594L25.1556 39.4389C25.2788 39.6045 25.5421 39.518 25.5428 39.3117L25.5499 37.7172L27.0608 37.2077C27.2564 37.1416 27.2555 36.8647 27.0594 36.8L25.5453 36.3006L25.5275 34.7063C25.525 34.5002 25.2614 34.4155 25.1394 34.582ZM30.88 30.9802L29.2949 31.1523L28.6186 29.7084C28.531 29.5216 28.256 29.5536 28.2138 29.7556L27.8877 31.3163L26.3055 31.5131C26.1007 31.5386 26.0461 31.8102 26.2253 31.9128L27.6089 32.705L27.3072 34.2706C27.2681 34.4734 27.5096 34.6091 27.6625 34.4705L28.8436 33.3994L30.2392 34.17C30.4199 34.2698 30.6238 34.082 30.5391 33.8938L29.8855 32.4394L31.0499 31.35C31.201 31.2097 31.0855 30.958 30.88 30.9802Z" fill="#FFE15A"/>
</svg>
