<svg width="24" height="24" viewBox="0 0 24 24" fill="none" xmlns="http://www.w3.org/2000/svg">
<path d="M23.2258 11.2258H1.17189C0.744299 11.2258 0.397705 11.5725 0.397705 12V18.6008C0.397705 19.0284 0.744346 19.375 1.17189 19.375H23.2258L24 18.9678V12C24 11.5724 23.6534 11.2258 23.2258 11.2258Z" fill="#F2F2F6"/>
<path d="M0.774188 16.6452V11.6016L0 12V18.9677C0 19.3953 0.346641 19.7419 0.774188 19.7419H23.2258C23.6534 19.7419 24 19.3953 24 18.9677H3.0968C1.81406 18.9677 0.774188 17.9279 0.774188 16.6452Z" fill="#E1E1E6"/>
<path d="M23.2258 4.25806H0.774188L0.375 5.03224V11.1562L0.774188 12H24V5.03224C24 4.60465 23.6534 4.25806 23.2258 4.25806Z" fill="#ED3432"/>
<path d="M0 5.03224V12H0.774188V4.25806C0.346641 4.25806 0 4.60465 0 5.03224Z" fill="#CF1614"/>
</svg>
