<svg width="24" height="24" viewBox="0 0 24 24" fill="none" xmlns="http://www.w3.org/2000/svg">
<g clip-path="url(#clip0_284_1124)">
<g clip-path="url(#clip1_284_1124)">
<path d="M3 13.645V16.1579C3 17.1999 3.82742 17.9353 4.83871 17.9353H20.1613C21.1726 17.9353 22 17.1999 22 16.1579V13.645H3Z" fill="#F8D12E"/>
<path d="M20.1613 5.06445H4.83871C3.82742 5.06445 3 5.79994 3 6.84187V9.35478H22V6.84187C22 5.79994 21.1726 5.06445 20.1613 5.06445Z" fill="#333333"/>
<path d="M3 9.35474H22V13.6451H3V9.35474Z" fill="#DB2727"/>
<path d="M20.1 17.9353C21.1113 17.9353 22 17.1999 22 16.1579V13.645H15.0742L20.1 17.9353Z" fill="#DBB30F"/>
<path d="M20.1613 5.06445H4.83868L9.92578 9.35478H22V6.84187C22 5.79994 21.1726 5.06445 20.1613 5.06445Z" fill="#202121"/>
<path d="M15.1048 13.6451H22V9.35474H9.89514L15.1048 13.6451Z" fill="#C10E0E"/>
<path d="M20.1613 5.06445H4.83868L19.0274 9.35478H22V6.84187C22 5.79994 21.1726 5.06445 20.1613 5.06445Z" fill="black"/>
<path d="M22 10.2128V9.35474H18.8742L22 10.2128Z" fill="#A00808"/>
<path d="M22 16.1273C22 17.2612 21.1726 17.9354 20.1613 17.9354H4.83871C3.82742 17.9354 3 17.1386 3 16.0967" fill="#D89F12"/>
</g>
<g clip-path="url(#clip2_284_1124)">
<path d="M24 17.8838C24 19.1999 22.9548 20.1289 21.6774 20.1289H2.32258C1.04516 20.1289 0 19.1999 0 17.8838V6.11601C0 4.79988 1.04516 3.87085 2.32258 3.87085H21.6774C22.9548 3.87085 24 4.79988 24 6.11601V17.8838Z" fill="#ED3432"/>
<path d="M2.32257 3.87085H21.6774C22.9548 3.87085 24 4.79988 24 6.11601V17.8838C24 19.1999 22.8 20.1289 21.5226 20.1289" fill="#DD0000"/>
<path d="M2.32258 3.87085H21.6774C22.9548 3.87085 24 4.79988 24 6.11601V10.4515M24 17.845C24 19.2773 22.9548 20.1289 21.6774 20.1289H2.32258C1.04516 20.1289 0 19.1225 0 17.8063" fill="#DD0000"/>
<path d="M12 7.70312L13.0064 10.8386H16.3355L13.6645 12.8902L14.6709 16.0644L12 14.1289L9.32901 16.1031L10.3355 12.8515L7.66449 10.8386H10.9935L12 7.70312Z" fill="#FDCE0C"/>
<path d="M13.0065 10.8386L12 7.70312L10.9936 10.8386H10.8774L13.8581 13.4709L13.6645 12.8128L16.3355 10.8386H13.0065Z" fill="#FC9C10"/>
</g>
</g>
<defs>
<clipPath id="clip0_284_1124">
<rect width="24" height="24" fill="white"/>
</clipPath>
<clipPath id="clip1_284_1124">
<rect width="19" height="19" fill="white" transform="translate(3 2)"/>
</clipPath>
<clipPath id="clip2_284_1124">
<rect width="24" height="24" fill="white"/>
</clipPath>
</defs>
</svg>
