<svg width="16" height="16" viewBox="0 0 16 16" fill="none" xmlns="http://www.w3.org/2000/svg">
<path d="M13.96 8.66663C13.9866 8.80663 14 8.93996 14 9.07996V12C14 13.3333 13.3333 14 12 14H4C2.66667 14 2 13.3333 2 12V9.07996C2 8.93996 2.01337 8.80663 2.04004 8.66663H4.6333C5.32663 8.66663 5.91994 9.07995 6.27327 9.67995C6.61994 10.2666 7.26 10.6666 8 10.6666C8.74 10.6666 9.38006 10.2666 9.72673 9.67995C10.0801 9.07995 10.6734 8.66663 11.36 8.66663H13.96Z" fill="#B7B9C6"/>
<path opacity="0.4" d="M5.3187 4C4.00003 4 3.79532 4.47666 3.47999 5.212L2.16131 8.28933C2.05464 8.53799 1.99936 8.806 1.99936 9.07733V12C1.99936 13.3333 2.66603 14 3.99936 14H11.9994C13.3327 14 13.9994 13.3333 13.9994 12V9.07733C13.9994 8.80666 13.9441 8.53866 13.8374 8.28933L12.5187 5.212C12.2034 4.47666 11.9994 4 10.68 4H5.3187Z" fill="#B7B9C6"/>
<path d="M9.6867 4.98004C9.49137 4.78471 9.17468 4.78471 8.97934 4.98004L8.49936 5.46004V1.33337C8.49936 1.05737 8.27536 0.833374 7.99936 0.833374C7.72336 0.833374 7.49936 1.05737 7.49936 1.33337V5.45937L7.01938 4.97937C6.82405 4.78404 6.50736 4.78404 6.31203 4.97937C6.11669 5.1747 6.11669 5.49137 6.31203 5.68671L7.64536 7.02004C7.69136 7.06604 7.74662 7.1027 7.80796 7.12803C7.86929 7.15337 7.93403 7.16671 7.99936 7.16671C8.0647 7.16671 8.12927 7.15337 8.19061 7.12803C8.25194 7.1027 8.30737 7.06604 8.35337 7.02004L9.6867 5.68671C9.88203 5.49204 9.88203 5.17471 9.6867 4.98004Z" fill="#B7B9C6"/>
</svg>
