<svg width="26" height="29" viewBox="0 0 26 29" fill="none" xmlns="http://www.w3.org/2000/svg">
<path opacity="0.4" d="M7.57664e-07 23.1111L0 5.77778C-1.39482e-07 2.5868 2.5868 5.18314e-07 5.77778 3.78832e-07L14.4444 0C18.2983 3.85389 22.1985 7.66649 26 11.5723V23.1111C26 26.3021 23.4132 28.8889 20.2222 28.8889H5.77778C2.5868 28.8889 8.97146e-07 26.3021 7.57664e-07 23.1111Z" fill="#FA7C7C"/>
<path d="M14.4444 5.77778L14.4444 0L26 11.5556L20.2222 11.5556C17.0312 11.5556 14.4444 8.96876 14.4444 5.77778Z" fill="#FA7C7C"/>
<path d="M4.96387 23.1111V16.9073H6.97396C7.73568 16.9073 8.23221 16.9384 8.46354 17.0004C8.81901 17.0935 9.11665 17.2967 9.35645 17.6098C9.59625 17.9202 9.71615 18.3222 9.71615 18.8159C9.71615 19.1967 9.64703 19.5169 9.50879 19.7765C9.37055 20.036 9.19423 20.2406 8.97982 20.3901C8.76823 20.5368 8.55241 20.6341 8.33236 20.6821C8.03331 20.7413 7.60026 20.771 7.0332 20.771H6.21647V23.1111H4.96387ZM6.21647 17.9568V19.7172H6.90202C7.39573 19.7172 7.7258 19.6848 7.89225 19.6199C8.0587 19.555 8.18848 19.4535 8.28158 19.3152C8.3775 19.177 8.42546 19.0162 8.42546 18.8328C8.42546 18.6071 8.35916 18.4209 8.22656 18.2742C8.09397 18.1275 7.92611 18.0358 7.72298 17.9991C7.57346 17.9709 7.273 17.9568 6.82161 17.9568H6.21647Z" fill="#FA7C7C"/>
<path d="M10.7402 16.9073H13.0296C13.5459 16.9073 13.9395 16.9468 14.2103 17.0258C14.5742 17.133 14.886 17.3235 15.1455 17.5971C15.4051 17.8708 15.6025 18.2065 15.738 18.6043C15.8734 18.9993 15.9411 19.4873 15.9411 20.0685C15.9411 20.5791 15.8776 21.0192 15.7507 21.3888C15.5955 21.8402 15.374 22.2055 15.0863 22.4848C14.869 22.6964 14.5756 22.8615 14.2061 22.9799C13.9296 23.0674 13.56 23.1111 13.0973 23.1111H10.7402V16.9073ZM11.9928 17.9568V22.0659H12.9281C13.2779 22.0659 13.5304 22.0461 13.6855 22.0066C13.8887 21.9559 14.0565 21.8698 14.1891 21.7485C14.3245 21.6272 14.4346 21.4283 14.5192 21.1518C14.6038 20.8725 14.6462 20.4931 14.6462 20.0135C14.6462 19.5339 14.6038 19.1657 14.5192 18.909C14.4346 18.6522 14.3161 18.4519 14.1637 18.3081C14.0114 18.1642 13.8181 18.0669 13.584 18.0161C13.4091 17.9766 13.0663 17.9568 12.5557 17.9568H11.9928Z" fill="#FA7C7C"/>
<path d="M17.016 23.1111V16.9073H21.2689V17.9568H18.2686V19.4253H20.8584V20.4747H18.2686V23.1111H17.016Z" fill="#FA7C7C"/>
</svg>
