<svg width="44" height="44" viewBox="0 0 44 44" fill="none" xmlns="http://www.w3.org/2000/svg">
<path d="M22 37.6316H26.6316C31.4206 37.6316 35.3158 33.7364 35.3158 28.9474C35.3158 24.1583 31.4206 20.2631 26.6316 20.2631H17.3684C14.4945 20.2631 12.1579 17.9265 12.1579 15.0526C12.1579 12.1787 14.4945 9.84209 17.3684 9.84209H22C22.9587 9.84209 23.7368 9.06399 23.7368 8.10525C23.7368 7.14651 22.9587 6.36841 22 6.36841H17.3684C12.5794 6.36841 8.68421 10.2636 8.68421 15.0526C8.68421 19.8417 12.5794 23.7368 17.3684 23.7368H26.6316C29.5055 23.7368 31.8421 26.0735 31.8421 28.9474C31.8421 31.8213 29.5055 34.1579 26.6316 34.1579H22C21.0413 34.1579 20.2632 34.936 20.2632 35.8947C20.2632 36.8535 21.0413 37.6316 22 37.6316Z" fill="white"/>
<path opacity="0.4" d="M35.8947 0C40.3642 0 44 3.63579 44 8.10526C44 12.8225 39.7852 15.6059 36.9947 17.4493L36.5362 17.7529C36.3416 17.8826 36.1171 17.9474 35.8947 17.9474C35.6724 17.9474 35.4478 17.8826 35.2533 17.7529L34.7948 17.4493C32.0043 15.6059 27.7895 12.8225 27.7895 8.10526C27.7895 3.63579 31.4253 0 35.8947 0Z" fill="white"/>
<path d="M35.8484 10.4211C37.1267 10.4211 38.1758 9.38366 38.1758 8.10534C38.1758 6.82702 37.1522 5.78955 35.8716 5.78955H35.8484C34.5701 5.78955 33.5326 6.82702 33.5326 8.10534C33.5326 9.38366 34.5701 10.4211 35.8484 10.4211Z" fill="white"/>
<path opacity="0.4" d="M8.10531 26.0526C12.5748 26.0526 16.2106 29.6884 16.2106 34.1579C16.2106 38.8751 11.9958 41.6585 9.20525 43.5019L8.74673 43.8055C8.5522 43.9352 8.32762 44 8.10531 44C7.88299 44 7.65841 43.9352 7.46389 43.8055L7.00536 43.5019C4.21484 41.6585 4.57764e-05 38.8751 4.57764e-05 34.1579C4.57764e-05 29.6884 3.63583 26.0526 8.10531 26.0526Z" fill="white"/>
<path d="M8.05891 36.4737C9.33723 36.4737 10.3863 35.4363 10.3863 34.158C10.3863 32.8796 9.36272 31.8422 8.08209 31.8422H8.05891C6.7806 31.8422 5.74312 32.8796 5.74312 34.158C5.74312 35.4363 6.7806 36.4737 8.05891 36.4737Z" fill="white"/>
</svg>
