<svg width="105" height="30" viewBox="0 0 105 30" fill="none" xmlns="http://www.w3.org/2000/svg">
<path d="M14.9997 30C23.2844 30 30 23.2838 30 14.9997C30 6.71561 23.2844 0 14.9997 0C6.71502 0 0 6.71561 0 14.9997C0 23.2838 6.71561 30 14.9997 30Z" fill="#2196F3"/>
<path fill-rule="evenodd" clip-rule="evenodd" d="M8.80219 19.2871H18.7228V12.0126C18.7228 10.9166 17.8347 10.0284 16.7387 10.0284H6.81805V17.303C6.81805 18.399 7.70621 19.2871 8.80219 19.2871ZM20.045 16.6422L24.0133 19.2871V10.0284L20.0456 12.674L20.045 16.6422Z" fill="white"/>
<path fill-rule="evenodd" clip-rule="evenodd" d="M92.798 12.37C93.0459 12.7977 93.127 13.2842 93.1538 13.8313L93.189 14.5604V19.6587L93.2249 20.3885C93.2968 21.5805 94.1759 22.4618 95.377 22.5368L96.1031 22.5728V14.5604L96.139 13.8313C96.1689 13.2904 96.2492 12.7946 96.5009 12.3639C96.7574 11.9221 97.1256 11.5555 97.5685 11.3011C98.0115 11.0466 98.5135 10.9131 99.0244 10.914C99.5352 10.9149 100.037 11.0502 100.479 11.3064C100.921 11.5625 101.288 11.9303 101.543 12.3731C101.79 12.8007 101.868 13.2965 101.898 13.8313L101.934 14.5581V19.6587L101.97 20.3885C102.044 21.5866 102.917 22.468 104.122 22.5368L104.848 22.5728V13.8313C104.848 12.2855 104.234 10.803 103.141 9.70983C102.048 8.61661 100.566 8.00214 99.0202 8.00153C98.1929 8.00066 97.3749 8.17635 96.6209 8.51687C95.8669 8.85739 95.1943 9.35489 94.6479 9.97614C94.1013 9.35513 93.4286 8.85775 92.6747 8.51713C91.9208 8.17651 91.1029 8.00048 90.2756 8.00077C89.0653 8.00077 87.9422 8.36799 87.0119 9.00222C86.4442 8.36876 85.1742 8.00077 84.4451 8.00077V22.5728L85.1742 22.5368C86.3937 22.4565 87.2751 21.5989 87.3225 20.3885L87.3615 19.6587V14.5604L87.3975 13.8313C87.4281 13.2812 87.5046 12.7977 87.7532 12.3669C88.0099 11.9254 88.378 11.559 88.8206 11.3042C89.2632 11.0494 89.7649 10.9151 90.2756 10.9149C90.7867 10.915 91.2888 11.0495 91.7316 11.3049C92.1743 11.5603 92.5421 11.9276 92.798 12.37ZM42.9141 22.5376L43.6432 22.5728H54.572L54.5361 21.846C54.4374 20.6479 53.5889 19.7727 52.387 19.6946L51.6579 19.6587H45.1014L53.8429 10.9141L53.807 10.1881C53.7503 8.97774 52.8659 8.10328 51.6579 8.03672L50.9288 8.00383L40 8.00077L40.036 8.72986C40.1316 9.91647 40.9923 10.8101 42.1842 10.8789L42.9141 10.9149H49.4706L40.7291 19.6595L40.7651 20.3885C40.837 21.5897 41.7038 22.4596 42.9141 22.5368V22.5376ZM81.5846 10.1337C82.2613 10.8103 82.7981 11.6135 83.1643 12.4976C83.5306 13.3816 83.7191 14.3291 83.7191 15.286C83.7191 16.2429 83.5306 17.1904 83.1643 18.0745C82.7981 18.9585 82.2613 19.7617 81.5846 20.4383C80.2174 21.8043 78.3638 22.5717 76.4312 22.5717C74.4985 22.5717 72.6449 21.8043 71.2778 20.4383C68.4325 17.593 68.4325 12.979 71.2778 10.1337C71.9538 9.45741 72.7565 8.92088 73.64 8.55477C74.5234 8.18866 75.4703 8.00015 76.4266 8C77.3844 7.99934 78.333 8.18752 79.2181 8.55377C80.1031 8.92003 80.9073 9.45719 81.5846 10.1345V10.1337ZM79.5228 12.1971C80.3423 13.0173 80.8027 14.1293 80.8027 15.2887C80.8027 16.4481 80.3423 17.5601 79.5228 18.3803C78.7026 19.1998 77.5906 19.6602 76.4312 19.6602C75.2717 19.6602 74.1598 19.1998 73.3396 18.3803C72.5201 17.5601 72.0597 16.4481 72.0597 15.2887C72.0597 14.1293 72.5201 13.0173 73.3396 12.1971C74.1598 11.3776 75.2717 10.9172 76.4312 10.9172C77.5906 10.9172 78.7026 11.3776 79.5228 12.1971ZM61.1347 8C62.091 8.00025 63.0379 8.18888 63.9214 8.55512C64.8048 8.92136 65.6075 9.45804 66.2835 10.1345C69.1295 12.979 69.1295 17.5938 66.2835 20.4383C64.9163 21.8043 63.0627 22.5717 61.1301 22.5717C59.1974 22.5717 57.3438 21.8043 55.9767 20.4383C53.1314 17.593 53.1314 12.979 55.9767 10.1337C56.6527 9.45741 57.4554 8.92088 58.3388 8.55477C59.2223 8.18866 60.1692 8.00015 61.1255 8H61.1347ZM64.2217 12.1956C65.0414 13.0158 65.5019 14.1279 65.5019 15.2875C65.5019 16.4472 65.0414 17.5593 64.2217 18.3795C63.4015 19.199 62.2895 19.6594 61.1301 19.6594C59.9706 19.6594 58.8586 19.199 58.0385 18.3795C57.2189 17.5594 56.7586 16.4474 56.7586 15.2879C56.7586 14.1285 57.2189 13.0165 58.0385 12.1963C58.8586 11.3768 59.9706 10.9164 61.1301 10.9164C62.2895 10.9164 63.4015 11.376 64.2217 12.1956Z" fill="#2D8CFF"/>
</svg>
