<svg width="16" height="16" viewBox="0 0 16 16" fill="none" xmlns="http://www.w3.org/2000/svg">
<path d="M0.685465 16.0002C0.509927 16.0002 0.33439 15.9335 0.200908 15.7991C-0.0669695 15.5312 -0.0669695 15.0969 0.200908 14.8291L14.8291 0.200908C15.0969 -0.0669695 15.5312 -0.0669695 15.7991 0.200908C16.067 0.468786 16.067 0.903092 15.7991 1.17097L1.17094 15.7991C1.03655 15.9335 0.861003 16.0002 0.685465 16.0002Z" fill="white"/>
<path opacity="0.4" d="M13.028 15.3145C14.2903 15.3145 15.3136 14.2911 15.3136 13.0288C15.3136 11.7665 14.2903 10.7432 13.028 10.7432C11.7656 10.7432 10.7423 11.7665 10.7423 13.0288C10.7423 14.2911 11.7656 15.3145 13.028 15.3145Z" fill="white"/>
<path opacity="0.4" d="M2.97113 5.25758C4.23346 5.25758 5.25678 4.23426 5.25678 2.97193C5.25678 1.7096 4.23346 0.686279 2.97113 0.686279C1.70881 0.686279 0.685486 1.7096 0.685486 2.97193C0.685486 4.23426 1.70881 5.25758 2.97113 5.25758Z" fill="white"/>
</svg>
