<svg width="16" height="16" viewBox="0 0 16 16" fill="none" xmlns="http://www.w3.org/2000/svg">
<path opacity="0.4" d="M16 2.66667V7.28889C16 7.46667 15.9111 7.55556 15.7333 7.55556H8.71111C8.53333 7.55556 8.44444 7.46667 8.44444 7.28889V0.266667C8.44444 0.0888888 8.53333 0 8.71111 0H13.3333C15.1111 0 16 0.888889 16 2.66667ZM2.66667 0C0.888889 0 0 0.888889 0 2.66667V7.28889C0 7.46667 0.0888888 7.55556 0.266667 7.55556H7.28889C7.46667 7.55556 7.55556 7.46667 7.55556 7.28889V0.266667C7.55556 0.0888888 7.46667 0 7.28889 0H2.66667ZM0 8.71111V13.3333C0 15.1111 0.888889 16 2.66667 16H7.28889C7.46667 16 7.55556 15.9111 7.55556 15.7333V8.71111C7.55556 8.53333 7.46667 8.44444 7.28889 8.44444H0.266667C0.0888888 8.44444 0 8.53333 0 8.71111Z" fill="white"/>
<path d="M8.44446 8.711V15.7332C8.44446 15.911 8.53335 15.9999 8.71112 15.9999H13.3333C15.1111 15.9999 16 15.111 16 13.3332V8.711C16 8.53322 15.9111 8.44434 15.7333 8.44434H8.71112C8.53335 8.44434 8.44446 8.53322 8.44446 8.711ZM13.3333 13.7777H10.6667C10.3111 13.7777 9.95557 13.511 9.95557 13.0666C9.95557 12.6221 10.3111 12.4443 10.6667 12.4443H13.3333C13.6889 12.4443 14.0445 12.711 14.0445 13.1554C14.0445 13.5999 13.6889 13.7777 13.3333 13.7777ZM13.3333 11.5554H10.6667C10.3111 11.5554 9.95557 11.2888 9.95557 10.8443C9.95557 10.3999 10.2222 10.1332 10.6667 10.1332H13.3333C13.6889 10.1332 14.0445 10.3999 14.0445 10.8443C14.0445 11.2888 13.6889 11.5554 13.3333 11.5554Z" fill="white"/>
<path d="M5.33334 4.62223H2.66668C2.31112 4.62223 1.95557 4.35557 1.95557 3.91112C1.95557 3.46668 2.31112 3.37779 2.66668 3.37779H5.33334C5.6889 3.37779 6.04446 3.64446 6.04446 4.0889C6.04446 4.53334 5.6889 4.62223 5.33334 4.62223ZM13.3333 3.37779H12.6222V2.66668C12.6222 2.31112 12.3556 1.95557 11.9111 1.95557C11.4667 1.95557 11.3778 2.31112 11.3778 2.66668V3.37779H10.6667C10.3111 3.37779 9.95557 3.64446 9.95557 4.0889C9.95557 4.53334 10.2222 4.80001 10.6667 4.80001H11.3778V5.33334C11.3778 5.6889 11.6445 6.04446 12.0889 6.04446C12.5333 6.04446 12.8 5.77779 12.8 5.33334V4.62223H13.3333C13.6889 4.62223 14.0445 4.35557 14.0445 3.91112C14.0445 3.46668 13.6889 3.37779 13.3333 3.37779ZM4.97779 12L5.60001 11.3778C5.86668 11.1111 5.86668 10.6667 5.60001 10.4C5.33334 10.1333 4.8889 10.1333 4.62223 10.4L4.00001 11.0222L3.37779 10.4C3.11112 10.1333 2.66668 10.1333 2.40001 10.4C2.13334 10.6667 2.13334 11.1111 2.40001 11.3778L3.02223 12L2.40001 12.6222C2.13334 12.8889 2.13334 13.3333 2.40001 13.6C2.4889 13.6889 2.66668 13.7778 2.84446 13.7778C3.02223 13.7778 3.20001 13.6889 3.2889 13.6L3.91112 12.9778L4.53334 13.6C4.62223 13.6889 4.80001 13.7778 4.97779 13.7778C5.15557 13.7778 5.33334 13.6889 5.42223 13.6C5.6889 13.3333 5.6889 12.8889 5.42223 12.6222L4.97779 12Z" fill="white"/>
<path opacity="0.4" d="M13.3333 11.5555H10.6667C10.3111 11.5555 9.95557 11.2889 9.95557 10.8444C9.95557 10.4 10.2222 10.1333 10.6667 10.1333H13.3333C13.6889 10.1333 14.0445 10.4 14.0445 10.8444C14.0445 11.2889 13.6889 11.5555 13.3333 11.5555ZM14.0445 13.1555C14.0445 12.8 13.7778 12.4444 13.3333 12.4444H10.6667C10.3111 12.4444 9.95557 12.7111 9.95557 13.1555C9.95557 13.6 10.2222 13.8666 10.6667 13.8666H13.3333C13.6889 13.7777 14.0445 13.5111 14.0445 13.1555Z" fill="white"/>
</svg>
