<svg width="12" height="10" viewBox="0 0 12 10" fill="none" xmlns="http://www.w3.org/2000/svg">
<path d="M12.0003 4.99972C12.0003 5.25572 11.9023 5.51175 11.7073 5.70675L7.70731 9.70675C7.31631 10.0977 6.68425 10.0977 6.29325 9.70675C5.90225 9.31575 5.90225 8.68369 6.29325 8.29269L9.58622 4.99972L6.29325 1.70675C5.90225 1.31575 5.90225 0.683687 6.29325 0.292687C6.68425 -0.0983124 7.31631 -0.0983124 7.70731 0.292687L11.7073 4.29269C11.9023 4.48769 12.0003 4.74372 12.0003 4.99972Z" fill="#7C88FA"/>
<path opacity="0.4" d="M6.00028 4.99972C6.00028 5.25572 5.90231 5.51175 5.70731 5.70675L1.70731 9.70675C1.31631 10.0977 0.68425 10.0977 0.29325 9.70675C-0.09775 9.31575 -0.0977501 8.68369 0.29325 8.29269L3.58622 4.99972L0.29325 1.70675C-0.0977504 1.31575 -0.0977504 0.683687 0.29325 0.292687C0.68425 -0.0983124 1.31631 -0.0983124 1.70731 0.292687L5.70731 4.29269C5.90231 4.48769 6.00028 4.74372 6.00028 4.99972Z" fill="#7C88FA"/>
</svg>
