<svg width="255" height="559" viewBox="0 0 255 559" fill="none" xmlns="http://www.w3.org/2000/svg">
<path d="M0 35.6072V523.393C8.76141e-05 529.842 1.67885 536.17 4.85682 541.701C8.03478 547.232 12.5928 551.761 18.044 554.8C23.4952 557.839 29.6348 559.275 35.8075 558.956C41.9802 558.638 47.9539 556.573 53.091 552.988L239.786 423.104C244.464 419.862 248.301 415.463 250.955 410.299C253.609 405.135 254.999 399.369 255 393.509V165.491C254.999 159.631 253.609 153.865 250.955 148.701C248.301 143.537 244.464 139.138 239.786 135.896L53.091 6.01228C47.9539 2.42665 41.9802 0.362293 35.8075 0.0435281C29.6348 -0.275237 23.4952 1.16143 18.044 4.20028C12.5928 7.23913 8.03478 11.7676 4.85682 17.299C1.67885 22.8304 8.76141e-05 29.1578 0 35.6072Z" fill="url(#paint0_linear_41_3989)" fill-opacity="0.03"/>
<path d="M52.8054 552.577L52.8048 552.578C47.7433 556.111 41.8595 558.143 35.7817 558.457C29.7038 558.771 23.6574 557.357 18.2874 554.363C12.9173 551.369 8.42424 546.907 5.29036 541.452C2.15642 535.997 0.500086 529.756 0.5 523.393V35.6072C0.500086 29.2442 2.15642 23.0029 5.29036 17.5481C8.42424 12.0934 12.9173 7.63066 18.2874 4.63701C23.6574 1.64345 29.7038 0.228994 35.7817 0.542863C41.8595 0.856728 47.7433 2.88937 52.8048 6.42229L52.8054 6.42273L239.501 136.306L239.502 136.307C244.11 139.501 247.893 143.837 250.51 148.93C253.128 154.022 254.499 159.71 254.5 165.491V393.509C254.499 399.29 253.128 404.978 250.51 410.07C247.893 415.163 244.11 419.499 239.502 422.693L239.501 422.694L52.8054 552.577Z" stroke="url(#paint1_linear_41_3989)" stroke-opacity="0.12"/>
<defs>
<linearGradient id="paint0_linear_41_3989" x1="22.5656" y1="0.337665" x2="22.5656" y2="346.764" gradientUnits="userSpaceOnUse">
<stop stop-color="white"/>
<stop offset="1" stop-color="white" stop-opacity="0"/>
</linearGradient>
<linearGradient id="paint1_linear_41_3989" x1="-0.0365341" y1="8.00611" x2="-0.0365281" y2="396.572" gradientUnits="userSpaceOnUse">
<stop stop-color="white"/>
<stop offset="1" stop-color="white" stop-opacity="0"/>
</linearGradient>
</defs>
</svg>
