<svg width="4" height="16" viewBox="0 0 4 16" fill="none" xmlns="http://www.w3.org/2000/svg">
<path d="M0.201965 4.57945C0.201965 4.39326 0.262867 4.21471 0.371274 4.08305C0.47968 3.9514 0.626712 3.87744 0.780022 3.87744H3.2252C3.37851 3.87744 3.52554 3.9514 3.63395 4.08305C3.74235 4.21471 3.80326 4.39326 3.80326 4.57945V13.9793C3.80326 14.1655 3.74235 14.3441 3.63395 14.4757C3.52554 14.6074 3.37851 14.6813 3.2252 14.6813H0.780022C0.626712 14.6813 0.47968 14.6074 0.371274 14.4757C0.262867 14.3441 0.201965 14.1655 0.201965 13.9793V4.57945Z" fill="url(#paint0_linear_8_99)"/>
<path fill-rule="evenodd" clip-rule="evenodd" d="M2.00274 0.276123C2.16193 0.276123 2.3146 0.326245 2.42716 0.415462C2.53972 0.504679 2.60296 0.625683 2.60296 0.751855V15.406C2.60296 15.5322 2.53972 15.6532 2.42716 15.7424C2.3146 15.8316 2.16193 15.8817 2.00274 15.8817C1.84356 15.8817 1.69089 15.8316 1.57833 15.7424C1.46576 15.6532 1.40253 15.5322 1.40253 15.406V0.751855C1.40253 0.625683 1.46576 0.504679 1.57833 0.415462C1.69089 0.326245 1.84356 0.276123 2.00274 0.276123Z" fill="url(#paint1_linear_8_99)"/>
<defs>
<linearGradient id="paint0_linear_8_99" x1="2.0029" y1="3.87744" x2="2.0029" y2="14.6813" gradientUnits="userSpaceOnUse">
<stop stop-color="white"/>
<stop offset="1" stop-color="white" stop-opacity="0"/>
</linearGradient>
<linearGradient id="paint1_linear_8_99" x1="2.00284" y1="0.276123" x2="2.00284" y2="15.8817" gradientUnits="userSpaceOnUse">
<stop stop-color="white"/>
<stop offset="1" stop-color="white" stop-opacity="0"/>
</linearGradient>
</defs>
</svg>
