<svg width="87" height="17" viewBox="0 0 87 17" fill="none" xmlns="http://www.w3.org/2000/svg">
<path d="M50.202 4.57945C50.202 4.39326 50.2629 4.21471 50.3713 4.08305C50.4797 3.9514 50.6267 3.87744 50.78 3.87744H53.2252C53.3785 3.87744 53.5255 3.9514 53.6339 4.08305C53.7424 4.21471 53.8033 4.39326 53.8033 4.57945V13.9793C53.8033 14.1655 53.7424 14.3441 53.6339 14.4757C53.5255 14.6074 53.3785 14.6813 53.2252 14.6813H50.78C50.6267 14.6813 50.4797 14.6074 50.3713 14.4757C50.2629 14.3441 50.202 14.1655 50.202 13.9793V4.57945Z" fill="url(#paint0_linear_8_98)"/>
<path fill-rule="evenodd" clip-rule="evenodd" d="M52.0027 0.276123C52.1619 0.276123 52.3146 0.326245 52.4272 0.415462C52.5397 0.504679 52.603 0.625683 52.603 0.751855V15.406C52.603 15.5322 52.5397 15.6532 52.4272 15.7424C52.3146 15.8316 52.1619 15.8817 52.0027 15.8817C51.8436 15.8817 51.6909 15.8316 51.5783 15.7424C51.4658 15.6532 51.4025 15.5322 51.4025 15.406V0.751855C51.4025 0.625683 51.4658 0.504679 51.5783 0.415462C51.6909 0.326245 51.8436 0.276123 52.0027 0.276123Z" fill="url(#paint1_linear_8_98)"/>
<path d="M82.1491 16.2056C81.4072 16.2056 80.7338 16.1191 80.1287 15.9463C79.5309 15.7806 79.0087 15.5357 78.5622 15.2116C78.1156 14.8803 77.7519 14.477 77.471 14.0016C77.1973 13.5262 77.01 12.986 76.9092 12.381L79.9235 11.9272C80.0459 12.5035 80.298 12.9392 80.6797 13.2345C81.0687 13.5298 81.5801 13.6775 82.2139 13.6775C82.7469 13.6775 83.1754 13.5766 83.4995 13.375C83.8309 13.1661 83.9965 12.878 83.9965 12.5107C83.9965 12.3882 83.9821 12.2838 83.9533 12.1973C83.9317 12.1037 83.8849 12.0209 83.8129 11.9489C83.748 11.8696 83.658 11.8012 83.5428 11.7436C83.4275 11.6788 83.2763 11.6139 83.089 11.5491C82.9017 11.4843 82.6496 11.4087 82.3327 11.3222C82.023 11.2286 81.6413 11.1206 81.1875 10.9981C80.4673 10.8108 79.8586 10.6128 79.3617 10.4039C78.8719 10.195 78.4721 9.95734 78.1624 9.69084C77.8599 9.41714 77.6402 9.10743 77.5034 8.76171C77.3665 8.41598 77.2981 8.01624 77.2981 7.56248C77.2981 7.00068 77.4062 6.4965 77.6222 6.04994C77.8455 5.59617 78.1588 5.21083 78.5622 4.89392C78.9655 4.5698 79.4517 4.32132 80.0207 4.14845C80.5969 3.97559 81.2379 3.88916 81.9438 3.88916C82.628 3.88916 83.2547 3.97199 83.8237 4.13765C84.3927 4.29611 84.8932 4.52659 85.3254 4.8291C85.7576 5.1244 86.1069 5.48453 86.3734 5.90949C86.6471 6.33444 86.8199 6.81341 86.892 7.3464L83.8885 7.8866C83.8309 7.42563 83.6184 7.0655 83.2511 6.80621C82.8909 6.53971 82.4264 6.40646 81.8574 6.40646C81.3676 6.40646 80.9714 6.5001 80.6689 6.68736C80.3664 6.86743 80.2152 7.10872 80.2152 7.41122C80.2152 7.51926 80.2296 7.6165 80.2584 7.70293C80.2944 7.78216 80.352 7.85778 80.4312 7.92981C80.5105 7.99463 80.6185 8.05946 80.7554 8.12428C80.8922 8.1891 81.0651 8.25753 81.2739 8.32955C81.4828 8.40158 81.7565 8.48441 82.095 8.57804C82.4408 8.67168 82.8513 8.77972 83.3267 8.90216C83.9965 9.07502 84.5619 9.26949 85.0229 9.48557C85.4911 9.69444 85.8692 9.93573 86.1573 10.2094C86.4526 10.4831 86.6651 10.7964 86.7947 11.1494C86.9316 11.5023 87 11.9056 87 12.3594C87 12.9572 86.8884 13.4938 86.6651 13.9692C86.4418 14.4445 86.1213 14.8479 85.7035 15.1792C85.2858 15.5105 84.778 15.7626 84.1802 15.9355C83.5824 16.1155 82.9053 16.2056 82.1491 16.2056Z" fill="white"/>
<path d="M70.7316 2.59293V0H73.6703V2.59293H70.7316ZM70.7316 15.8817V4.21351H73.6703V15.8817H70.7316Z" fill="white"/>
<path d="M56.3954 15.8816L60.5657 9.98265L56.4818 4.21338H59.9391L62.2727 7.67062L64.5631 4.21338H68.0204L63.9365 9.98265L68.1284 15.8816H64.6712L62.2727 12.2947L59.8526 15.8816H56.3954Z" fill="white"/>
<path d="M46.9676 0.324219V15.8818H44.0289V14.4449C43.6832 14.9995 43.233 15.4316 42.6784 15.7414C42.1238 16.0511 41.4288 16.2059 40.5933 16.2059C39.8514 16.2059 39.1564 16.0547 38.5081 15.7522C37.8671 15.4496 37.3089 15.0283 36.8335 14.4881C36.3654 13.9407 35.9944 13.2889 35.7207 12.5326C35.4542 11.7763 35.321 10.948 35.321 10.0477C35.321 9.14018 35.4542 8.30828 35.7207 7.55201C35.9944 6.79574 36.3654 6.14751 36.8335 5.60731C37.3089 5.06712 37.8671 4.64577 38.5081 4.34326C39.1564 4.04075 39.8514 3.8895 40.5933 3.8895C41.4288 3.8895 42.1238 4.04435 42.6784 4.35406C43.233 4.66378 43.6832 5.09593 44.0289 5.65053V0.324219H46.9676ZM41.2415 6.63368C40.7733 6.63368 40.3628 6.71651 40.0099 6.88217C39.6569 7.04783 39.3616 7.28191 39.1239 7.58442C38.8935 7.88693 38.7206 8.24706 38.6054 8.66481C38.4901 9.08256 38.4325 9.54353 38.4325 10.0477C38.4325 10.5663 38.4901 11.0381 38.6054 11.463C38.7278 11.8808 38.9043 12.2373 39.1348 12.5326C39.3724 12.8279 39.6677 13.0584 40.0207 13.224C40.3736 13.3825 40.7805 13.4617 41.2415 13.4617C41.7241 13.4617 42.1382 13.3789 42.484 13.2132C42.8369 13.0476 43.125 12.8171 43.3483 12.5218C43.5787 12.2193 43.748 11.8592 43.856 11.4414C43.9713 11.0165 44.0289 10.5519 44.0289 10.0477C44.0289 9.52192 43.9677 9.05015 43.8452 8.6324C43.73 8.20745 43.5535 7.84732 43.3159 7.55201C43.0854 7.25671 42.7973 7.02982 42.4515 6.87137C42.1058 6.71291 41.7025 6.63368 41.2415 6.63368Z" fill="white"/>
<path d="M27.4773 3.88916C29.1843 3.88916 30.4484 4.31411 31.2695 5.16402C32.0978 6.00672 32.5119 7.31039 32.5119 9.07502V15.8815H29.5733V14.4445C29.1987 15.0352 28.7162 15.4781 28.1255 15.7734C27.5349 16.0615 26.8147 16.2056 25.9648 16.2056C25.3814 16.2056 24.852 16.1191 24.3766 15.9463C23.9012 15.7806 23.4907 15.5429 23.145 15.2332C22.8064 14.9163 22.5435 14.5418 22.3563 14.1096C22.169 13.6703 22.0754 13.1877 22.0754 12.6619C22.0754 10.4147 23.5987 9.10023 26.6454 8.71849L29.5733 8.35116C29.5373 7.70293 29.3428 7.22756 28.9899 6.92505C28.6369 6.61534 28.1328 6.46048 27.4773 6.46048C26.8363 6.46048 26.3285 6.57572 25.954 6.80621C25.5866 7.02949 25.3165 7.38962 25.1437 7.8866L22.4859 7.15193C22.81 6.09315 23.3971 5.28646 24.247 4.73186C25.1041 4.17006 26.1809 3.88916 27.4773 3.88916ZM27.0776 10.7604C25.6587 10.9333 24.9492 11.4807 24.9492 12.4026C24.9492 13.3245 25.5326 13.7855 26.6994 13.7855C27.0091 13.7855 27.2973 13.7495 27.5637 13.6775C27.8374 13.5982 28.0859 13.4938 28.3092 13.3642C28.5325 13.2273 28.727 13.0725 28.8926 12.8996C29.0655 12.7195 29.1987 12.5323 29.2924 12.3378C29.4292 12.0641 29.5084 11.7724 29.5301 11.4627C29.5589 11.153 29.5733 10.8685 29.5733 10.6092V10.4471L27.0776 10.7604Z" fill="white"/>
<path d="M20.2307 6.74138C20.0434 6.69817 19.831 6.66936 19.5933 6.65495C19.3628 6.64055 19.1071 6.63334 18.8262 6.63334C18.4084 6.63334 18.0411 6.70177 17.7242 6.83862C17.4145 6.96826 17.1552 7.15553 16.9463 7.40042C16.7374 7.64531 16.579 7.94421 16.471 8.29714C16.3701 8.64286 16.3197 9.0282 16.3197 9.45316V15.8815H13.381V4.21328H16.3197V5.65019C16.4637 5.3909 16.6366 5.15321 16.8383 4.93714C17.0472 4.72106 17.2884 4.53739 17.5621 4.38614C17.8358 4.22768 18.1456 4.10524 18.4913 4.01881C18.837 3.93238 19.2223 3.88916 19.6473 3.88916C19.7481 3.88916 19.8454 3.89276 19.939 3.89996C20.0326 3.89996 20.1299 3.90356 20.2307 3.91077V6.74138Z" fill="white"/>
<path d="M4.57004 15.8818V3.0684H0V0.324219H12.1003V3.0684H7.5303V15.8818H4.57004Z" fill="white"/>
<defs>
<linearGradient id="paint0_linear_8_98" x1="52.0029" y1="3.87744" x2="52.0029" y2="14.6813" gradientUnits="userSpaceOnUse">
<stop stop-color="white"/>
<stop offset="1" stop-color="white" stop-opacity="0"/>
</linearGradient>
<linearGradient id="paint1_linear_8_98" x1="52.0028" y1="0.276123" x2="52.0028" y2="15.8817" gradientUnits="userSpaceOnUse">
<stop stop-color="white"/>
<stop offset="1" stop-color="white" stop-opacity="0"/>
</linearGradient>
</defs>
</svg>
